<svg width="38" height="38" viewBox="0 0 38 38" fill="none" xmlns="http://www.w3.org/2000/svg">
<circle cx="19" cy="19" r="18.5" transform="matrix(1 0 0 -1 0 38)" stroke="black"/>
<path d="M15.2334 19.1194L20.6815 24.6477C20.8075 24.7757 20.9757 24.8462 21.155 24.8462C21.3344 24.8462 21.5026 24.7757 21.6286 24.6477L22.0298 24.2407C22.2909 23.9754 22.2909 23.5444 22.0298 23.2796L17.455 18.6372L22.0349 13.9897C22.1609 13.8617 22.2305 13.6911 22.2305 13.5092C22.2305 13.3271 22.1609 13.1565 22.0349 13.0285L21.6337 12.6215C21.5076 12.4936 21.3395 12.4231 21.1601 12.4231C20.9808 12.4231 20.8126 12.4936 20.6865 12.6215L15.2334 18.1549C15.1071 18.2833 15.0378 18.4547 15.0382 18.6369C15.0378 18.8198 15.1071 18.9911 15.2334 19.1194Z" fill="black" stroke="#F9F7F0" stroke-width="0.7"/>
</svg>
