<svg width="12" height="8" viewBox="0 0 12 8" fill="none" xmlns="http://www.w3.org/2000/svg">
<path d="M6.54985 6.88554L11.1324 2.30294C11.2384 2.19695 11.2969 2.05546 11.2969 1.9046C11.2969 1.75373 11.2384 1.61225 11.1324 1.50626L10.795 1.16878C10.5751 0.949182 10.2178 0.949182 9.99829 1.16878L6.15017 5.0169L2.29778 1.16451C2.1917 1.05852 2.0503 1 1.89952 1C1.74857 1 1.60717 1.05852 1.50101 1.16451L1.1637 1.50199C1.05763 1.60806 0.999192 1.74946 0.999192 1.90033C0.999192 2.05119 1.05763 2.19268 1.1637 2.29867L5.7504 6.88554C5.85681 6.99178 5.99889 7.05013 6.14992 7.0498C6.30153 7.05013 6.44352 6.99178 6.54985 6.88554Z" fill="black" stroke="#F9F7F0" stroke-width="0.6"/>
</svg>
