<svg width="38" height="38" viewBox="0 0 38 38" fill="none" xmlns="http://www.w3.org/2000/svg">
<circle cx="19" cy="19" r="18.5" transform="matrix(-1 0 0 1 38 0)" stroke="black"/>
<path d="M22.7666 18.8806L17.3185 13.3523C17.1925 13.2243 17.0243 13.1538 16.845 13.1538C16.6656 13.1538 16.4974 13.2243 16.3714 13.3523L15.9702 13.7593C15.7091 14.0246 15.7091 14.4556 15.9702 14.7204L20.545 19.3628L15.9651 24.0103C15.8391 24.1383 15.7695 24.3089 15.7695 24.4908C15.7695 24.6729 15.8391 24.8435 15.9651 24.9715L16.3663 25.3785C16.4924 25.5064 16.6605 25.5769 16.8399 25.5769C17.0192 25.5769 17.1874 25.5064 17.3135 25.3785L22.7666 19.8451C22.8929 19.7167 22.9622 19.5453 22.9618 19.3631C22.9622 19.1802 22.8929 19.0089 22.7666 18.8806Z" fill="black" stroke="#F9F7F0" stroke-width="0.7"/>
</svg>
