<svg width="22" height="26" viewBox="0 0 22 26" fill="none" xmlns="http://www.w3.org/2000/svg">
<path d="M19.2237 4.73418H14.6869V3.27786C14.6869 2.02124 13.6649 1 12.4091 1H9.38026C8.12364 1 7.1024 2.02124 7.1024 3.27786V4.73418H2.51858C1.68032 4.73418 1 5.4145 1 6.25275V23.7156C1 24.5546 1.68032 25.2342 2.51858 25.2342H19.2229C20.0619 25.2342 20.7415 24.5546 20.7415 23.7156V6.25275C20.7415 5.4145 20.0627 4.73418 19.2237 4.73418ZM8.62173 3.27786C8.62173 2.85874 8.96189 2.51858 9.38102 2.51858H12.4098C12.8289 2.51858 13.1691 2.85874 13.1691 3.27786V4.73418H8.62173V3.27786ZM19.2237 23.7156H2.51934V6.25275H7.10316V7.81537C7.10316 7.81537 7.08266 8.5739 7.85789 8.5739C8.71209 8.5739 8.62173 7.81537 8.62173 7.81537V6.25275H13.1691V7.81537C13.1691 7.81537 13.1182 8.57769 13.9254 8.57769C14.6846 8.57769 14.6877 7.81537 14.6877 7.81537V6.25275H19.2237V23.7156Z" fill="black" stroke="#F9F7F0" stroke-width="0.7"/>
</svg>
