<svg width="22" height="22" viewBox="0 0 22 22" fill="none" xmlns="http://www.w3.org/2000/svg">
<rect width="22" height="22" fill="#ffffff0" style="mix-blend-mode:multiply"/>
<path d="M10.9999 1.375C8.76845 1.3902 6.61161 2.18028 4.89835 3.61009C3.18509 5.0399 2.02187 7.02058 1.60769 9.21331C1.19351 11.406 1.5541 13.6746 2.62777 15.6308C3.70145 17.587 5.42149 19.1094 7.49365 19.9375C7.35438 19.0261 7.35438 18.0989 7.49365 17.1875L8.62802 12.375C8.4485 11.9392 8.35961 11.4713 8.36677 11C8.36677 9.66625 9.14365 8.6625 10.1061 8.6625C10.2805 8.65988 10.4534 8.69497 10.6129 8.76539C10.7725 8.8358 10.9149 8.93987 11.0305 9.07045C11.146 9.20104 11.232 9.35507 11.2825 9.52198C11.333 9.68889 11.3468 9.86475 11.323 10.0375C11.323 10.8625 10.8005 12.1 10.5255 13.2413C10.4663 13.4541 10.4593 13.678 10.505 13.8942C10.5507 14.1103 10.6478 14.3122 10.7881 14.4829C10.9284 14.6535 11.1078 14.7878 11.311 14.8745C11.5142 14.9611 11.7353 14.9975 11.9555 14.9806C13.6605 14.9806 14.9805 13.1725 14.9805 10.5738C14.9977 10.0457 14.9046 9.51981 14.7071 9.02973C14.5097 8.53965 14.2123 8.0961 13.8338 7.72737C13.4554 7.35865 13.0043 7.07285 12.5092 6.88821C12.0142 6.70358 11.4861 6.62415 10.9586 6.655C10.3955 6.63081 9.83333 6.72114 9.30612 6.92053C8.77891 7.11991 8.29764 7.4242 7.89144 7.81497C7.48524 8.20575 7.16256 8.67488 6.94292 9.19398C6.72329 9.71308 6.61127 10.2714 6.61365 10.835C6.60601 11.6202 6.84662 12.3878 7.30115 13.0281C7.3342 13.0649 7.35775 13.1091 7.36973 13.1571C7.38171 13.205 7.38177 13.2552 7.3699 13.3031C7.29427 13.6056 7.12927 14.2656 7.10177 14.3963C7.07427 14.5269 6.9574 14.6094 6.77865 14.5269C5.57552 13.9631 4.82615 12.21 4.82615 10.7937C4.82615 7.76188 7.03302 4.97062 11.1855 4.97062C14.5199 4.97062 17.1186 7.34937 17.1186 10.5325C17.1186 13.8462 15.0561 16.5138 12.1205 16.5138C11.6902 16.5287 11.2629 16.4359 10.8775 16.2438C10.4921 16.0517 10.1608 15.7664 9.91365 15.4137L9.31552 17.7031C9.0288 18.5928 8.62662 19.4411 8.11927 20.2262C9.05412 20.5025 10.0251 20.637 10.9999 20.625C13.5526 20.625 16.0008 19.6109 17.8058 17.8059C19.6108 16.0009 20.6249 13.5527 20.6249 11C20.6249 8.44729 19.6108 5.99913 17.8058 4.1941C16.0008 2.38906 13.5526 1.375 10.9999 1.375Z" fill="#282829"/>
</svg>
