<svg width="21" height="20" viewBox="0 0 21 20" fill="none" xmlns="http://www.w3.org/2000/svg">
<path d="M15.1965 13.0016L15.0878 13.1744L15.2353 13.3154L20.6587 18.5031L19.7163 19.6361L14.3331 14.5855L14.1589 14.422L13.9877 14.5887C12.4333 16.102 10.4285 16.9288 8.35884 16.9173L8.35885 16.9171L8.34907 16.9174C6.27831 16.9869 4.26199 16.1545 2.74228 14.5941C1.22364 13.0347 0.325468 10.8753 0.250139 8.58597C0.329304 6.29796 1.22867 4.14098 2.74654 2.58242C4.26547 1.02276 6.27974 0.188904 8.34958 0.254121L8.35775 0.254379L8.36592 0.254102C10.4269 0.1843 12.4346 1.00787 13.9526 2.55445C15.4703 4.10074 16.3752 6.24498 16.4649 8.52417C16.467 10.1253 16.0237 11.6872 15.1965 13.0016ZM1.64964 8.49203L1.6492 8.50244L1.64964 8.51285C1.72707 10.371 2.4721 12.1247 3.72852 13.389C4.98294 14.6513 6.64621 15.3234 8.35712 15.2513C10.0693 15.3281 11.7351 14.6574 12.9906 13.394C14.2481 12.1287 14.9919 10.3722 15.0653 8.51229L15.0657 8.50216L15.0653 8.49203C14.9878 6.63385 14.2428 4.88022 12.9864 3.6159C11.7319 2.35352 10.0685 1.68136 8.35745 1.75359C6.64642 1.68136 4.98302 2.35352 3.72852 3.6159C2.4721 4.88022 1.72707 6.63385 1.64964 8.49203Z" fill="black" stroke="#FCFBF7" stroke-width="0.5"/>
</svg>
