<svg width="15" height="18" viewBox="0 0 15 18" fill="none" xmlns="http://www.w3.org/2000/svg">
<path d="M7.87814 0.514173C8.82047 0.5 9.75589 0.50737 10.6907 0.5C10.7218 1.65144 11.1961 2.68779 11.9508 3.45541L11.9497 3.45428C12.7619 4.17485 13.8188 4.642 14.9839 4.72137L15 4.7225V7.57757C13.8994 7.55036 12.8644 7.30034 11.9312 6.87061L11.9784 6.88988C11.5271 6.67615 11.1455 6.45675 10.7828 6.21183L10.8128 6.23111C10.8059 8.29984 10.8197 10.3686 10.7984 12.4299C10.7391 13.4805 10.3845 14.4386 9.81575 15.2385L9.82727 15.2209C8.8763 16.5623 7.33588 17.4427 5.5842 17.4949H5.57614C5.50534 17.4983 5.42187 17.5 5.33782 17.5C4.34196 17.5 3.41114 17.2267 2.61791 16.7522L2.64093 16.7653C1.19722 15.9098 0.201355 14.4459 0.0171494 12.7434L0.0148469 12.7202C0.000455796 12.3659 -0.00645198 12.0115 0.00793912 11.6646C0.290004 8.95521 2.59488 6.85927 5.39654 6.85927C5.71142 6.85927 6.01996 6.88591 6.31987 6.93637L6.28763 6.93184C6.30203 7.98009 6.25885 9.02891 6.25885 10.0772C6.01536 9.99043 5.73444 9.93997 5.44144 9.93997C4.36614 9.93997 3.45144 10.6169 3.11296 11.562L3.10778 11.579C3.03122 11.821 2.9869 12.0994 2.9869 12.3874C2.9869 12.5042 2.99438 12.6199 3.00819 12.7332L3.00704 12.7196C3.19816 13.8796 4.20784 14.7549 5.42532 14.7549C5.46044 14.7549 5.49497 14.7544 5.52951 14.7527H5.52433C6.3665 14.7277 7.09757 14.2815 7.51088 13.6222L7.51663 13.612C7.67033 13.4011 7.77567 13.146 7.81079 12.8687L7.81136 12.8608C7.88332 11.5926 7.85454 10.3317 7.86145 9.0635C7.86835 6.20843 7.85454 3.36017 7.87584 0.512473L7.87814 0.514173Z" fill="black"/>
</svg>
