<svg width="19" height="16" viewBox="0 0 19 16" fill="none" xmlns="http://www.w3.org/2000/svg">
<path d="M5.97636 15.9998C7.43517 16.0093 8.88127 15.7185 10.2308 15.1444C11.5803 14.5702 12.8064 13.7241 13.838 12.6551C14.8695 11.5861 15.686 10.3155 16.24 8.91692C16.7941 7.51837 17.0746 6.01975 17.0655 4.50797C17.0655 4.32897 17.0655 4.15892 17.0655 3.97992C17.8216 3.40577 18.4762 2.70022 19 1.89457C18.2879 2.2173 17.5345 2.43134 16.7632 2.53002C17.581 2.02504 18.1946 1.23018 18.4905 0.292516C17.7283 0.766366 16.8926 1.09948 16.0205 1.27702C15.4331 0.628469 14.6559 0.198591 13.8091 0.0538963C12.9623 -0.0907982 12.093 0.057757 11.3359 0.476576C10.5787 0.895396 9.97585 1.56113 9.62057 2.37078C9.26528 3.18042 9.17738 4.08884 9.37045 4.95547C7.82111 4.87666 6.30516 4.46055 4.92131 3.73425C3.53746 3.00794 2.31674 1.98772 1.33864 0.740016C0.845433 1.62712 0.695941 2.6753 0.920429 3.67233C1.14492 4.66936 1.72661 5.54073 2.54773 6.11002C1.94198 6.08581 1.35025 5.91411 0.820454 5.60882V5.65357C0.815072 6.58064 1.11644 7.48162 1.67433 8.20635C2.23223 8.93108 3.01294 9.43577 3.88636 9.63632C3.32296 9.79336 2.7328 9.81782 2.15909 9.70792C2.41195 10.4986 2.89463 11.1888 3.54095 11.6839C4.18726 12.179 4.96556 12.4548 5.76909 12.4735C4.39523 13.6195 2.68772 14.2504 0.924091 14.2635C0.614869 14.2542 0.306373 14.2273 0 14.1829C1.7851 15.3615 3.85977 15.9829 5.97636 15.9729" fill="#282829"/>
</svg>
