<svg width="21" height="16" viewBox="0 0 21 16" fill="none" xmlns="http://www.w3.org/2000/svg">
<path fill-rule="evenodd" clip-rule="evenodd" d="M8.38786 10.7153V4.82292C10.4797 5.80722 12.0998 6.75807 14.0159 7.78322C12.4355 8.65966 10.4797 9.64306 8.38786 10.7153ZM20.0456 1.89235C19.6847 1.41695 19.0697 1.0469 18.415 0.924382C16.4905 0.558929 4.48453 0.55789 2.56111 0.924382C2.03606 1.02281 1.56853 1.26072 1.1669 1.63036C-0.525381 3.20106 0.00489949 11.6242 0.412805 12.9886C0.584333 13.5792 0.806075 14.0051 1.08533 14.2847C1.44512 14.6543 1.93774 14.9089 2.50358 15.023C4.08813 15.3507 12.2514 15.534 18.3815 15.0722C18.9463 14.9738 19.4462 14.7111 19.8405 14.3257C21.4052 12.7613 21.2986 3.86514 20.0456 1.89235Z" fill="black"/>
</svg>
