
<svg width="70" height="70" viewBox="0 0 70 70" fill="none" xmlns="http://www.w3.org/2000/svg">
<path d="M35 70C54.33 70 70 54.33 70 35C70 15.67 54.33 0 35 0C15.67 0 0 15.67 0 35C0 54.33 15.67 70 35 70Z" fill="#ffffff0"/>
<path d="M59.0401 34.98C59.0401 21.7253 48.2547 10.9399 35 10.9399C21.7453 10.9399 10.96 21.7253 10.96 34.98C10.96 48.2347 21.3562 58.621 34.2817 59.0001C34.5211 59.03 34.7556 59.05 35 59.05C35.2445 59.05 35.4789 59.03 35.7184 59.0001C48.6438 58.616 59.0401 47.9952 59.0401 34.98ZM58.2818 34.98C58.2818 36.7759 58.0723 38.5219 57.6832 40.2031C52.8193 40.233 48.9731 41.081 45.945 42.403C46.3042 40.0783 46.5037 37.599 46.5037 35.0249C46.5037 24.045 42.9618 14.7712 38.1378 11.9127C49.4969 13.4492 58.2868 23.2019 58.2868 34.98H58.2818ZM34.3265 58.2468C30.1212 57.6781 26.5693 51.8564 25.0478 43.7849C33.3388 48.1748 34.2966 56.3312 34.4014 58.2518C34.3764 58.2518 34.3515 58.2518 34.3265 58.2518V58.2468ZM35.3692 58.2568C35.4739 56.3262 36.4367 48.0052 44.9772 43.6452C43.4706 51.7916 39.8988 57.6781 35.6735 58.2468C35.5737 58.2468 35.4739 58.2518 35.3692 58.2568ZM34.8853 56.2813C34.2268 52.8541 32.0418 46.5236 24.8881 42.9119C24.4791 40.4475 24.2546 37.7986 24.2546 35.0299C24.2546 22.1992 29.0736 11.7631 35 11.7631C40.9265 11.7631 45.7455 22.1992 45.7455 35.0299C45.7455 37.7537 45.526 40.3627 45.1269 42.7921C37.7836 46.3789 35.5537 52.8092 34.8853 56.2763V56.2813ZM31.8622 11.9227C27.0382 14.7812 23.4963 24.055 23.4963 35.0349C23.4963 37.6489 23.7008 40.1631 24.07 42.5228C21.0519 41.1609 17.2007 40.2729 12.3119 40.218C11.9228 38.5369 11.7132 36.7859 11.7132 34.99C11.7132 23.2169 20.5031 13.4592 31.8622 11.9227ZM12.5014 40.9763C17.4302 41.0511 21.2514 41.979 24.2147 43.3708C25.4618 50.3698 28.2255 55.8423 31.6676 58.0223C22.3988 56.6854 14.876 49.871 12.5064 40.9713L12.5014 40.9763ZM38.3324 58.0273C41.7945 55.8323 44.5681 50.3149 45.8053 43.2611C48.7785 41.9092 52.5948 41.0262 57.4986 40.9763C55.129 49.8759 47.6062 56.6954 38.3324 58.0323V58.0273Z" fill="black"/>
</svg>
