<svg width="70" height="70" viewBox="0 0 70 70" fill="none" xmlns="http://www.w3.org/2000/svg">
<path d="M35 70C54.33 70 70 54.33 70 35C70 15.67 54.33 0 35 0C15.67 0 0 15.67 0 35C0 54.33 15.67 70 35 70Z" fill="#ffffff0"/>
<path d="M35 10.96C21.7453 10.96 10.96 21.7453 10.96 35C10.96 48.2547 21.7453 59.0401 35 59.0401C48.2547 59.0401 59.0401 48.2547 59.0401 35C59.0401 21.7453 48.2547 10.96 35 10.96ZM35 17.2955C45.8153 17.2955 53.3481 19.261 53.3481 21.027C53.3481 22.7929 45.8103 24.7584 35 24.7584C24.1897 24.7584 16.652 22.7929 16.652 21.027C16.652 19.261 24.1897 17.2955 35 17.2955ZM34.6209 58.2718C28.3702 58.172 22.7081 55.5979 18.5775 51.4873L34.6209 26.7539V58.2718ZM53.9916 21.5557C56.6904 25.3571 58.2818 29.9915 58.2818 35C58.2818 41.0911 55.9272 46.6384 52.086 50.7889L35.3891 25.5067C43.9496 25.4668 52.8841 24.0899 53.9866 21.5557H53.9916ZM35 11.7132C41.5101 11.7132 47.4017 14.4021 51.632 18.7272C48.13 17.2905 41.4253 16.5322 35 16.5322C28.5747 16.5322 21.87 17.2905 18.368 18.7272C22.5984 14.4021 28.4899 11.7132 35 11.7132ZM16.0084 21.5557C17.1109 24.08 25.9906 25.4568 34.5261 25.5067L18.0388 50.9236C14.1227 46.7581 11.7182 41.1559 11.7182 35C11.7182 29.9965 13.3096 25.3571 16.0084 21.5557ZM35.3791 58.2718V26.8636L51.5522 51.3526C47.4116 55.5431 41.6947 58.172 35.3791 58.2718Z" fill="black"/>
</svg>
