<svg width="70" height="70" viewBox="0 0 70 70" fill="none" xmlns="http://www.w3.org/2000/svg">
<path d="M35 70C54.33 70 70 54.33 70 35C70 15.67 54.33 0 35 0C15.67 0 0 15.67 0 35C0 54.33 15.67 70 35 70Z" fill="#ffffff0"/>
<path d="M52.0758 51.9013C56.3759 47.5562 59.0399 41.5849 59.0399 34.9999C59.0399 28.415 56.3759 22.4436 52.0758 18.0985C52.0508 18.0686 52.0309 18.0337 52.0009 18.0038C51.971 17.9738 51.9361 17.9539 51.9062 17.9289C47.5611 13.6288 41.5897 10.9648 35.0048 10.9648C28.4198 10.9648 22.4485 13.6288 18.1034 17.9289C18.0735 17.9539 18.0386 17.9738 18.0086 18.0038C17.9787 18.0337 17.9588 18.0686 17.9338 18.0985C13.6336 22.4436 10.9697 28.415 10.9697 34.9999C10.9697 41.5849 13.6336 47.5562 17.9338 51.9013C17.9588 51.9362 17.9837 51.9711 18.0136 52.001C18.0436 52.031 18.0785 52.0559 18.1134 52.0809C22.4585 56.381 28.4298 59.04 35.0098 59.04C41.5897 59.04 47.5611 56.381 51.9111 52.0759C51.9461 52.0509 51.981 52.026 52.0109 51.9961C52.0409 51.9661 52.0608 51.9312 52.0857 51.8963L52.0758 51.9013ZM51.4322 51.4772C50.5443 52.2305 45.8151 49.6165 39.1154 43.8198C39.2152 42.3731 39.285 40.8715 39.3349 39.33C40.8764 39.2801 42.3779 39.2103 43.8246 39.1105C49.6214 45.8102 52.2304 50.5344 51.4771 51.4274C51.4622 51.4423 51.4472 51.4573 51.4273 51.4772H51.4322ZM18.5225 51.4274C17.7692 50.5344 20.3832 45.8102 26.175 39.1105C27.6217 39.2103 29.1232 39.2801 30.6647 39.33C30.7146 40.8715 30.7844 42.3731 30.8842 43.8198C24.1845 49.6115 19.4603 52.2305 18.5674 51.4723C18.5524 51.4573 18.5374 51.4423 18.5175 51.4224L18.5225 51.4274ZM18.6023 18.4876C19.141 18.1384 21.0816 18.7071 24.9677 21.4609C26.7786 22.7479 28.789 24.3443 30.8892 26.1651C30.7894 27.6118 30.7146 29.1134 30.6697 30.6598C29.1282 30.7097 27.6267 30.7796 26.18 30.8793C20.3882 24.1796 17.7742 19.4554 18.5225 18.5625C18.5474 18.5375 18.5723 18.5126 18.6023 18.4876ZM51.4821 18.5625C52.2354 19.4504 49.6214 24.1796 43.8296 30.8793C42.3829 30.7796 40.8814 30.7097 39.3399 30.6598C39.29 29.1134 39.2202 27.6118 39.1204 26.1651C41.2206 24.3443 43.231 22.7479 45.0418 21.4609C48.2645 19.1761 50.1552 18.3929 51.0132 18.3929C51.2078 18.3929 51.3375 18.4378 51.4322 18.5076C51.4522 18.5276 51.4672 18.5425 51.4871 18.5625H51.4821ZM36.5014 38.6316C36.0075 38.6366 35.5086 38.6416 35.0048 38.6416C34.5009 38.6416 33.9971 38.6416 33.5032 38.6316C33.144 38.2824 32.7899 37.9382 32.4257 37.574C32.0615 37.2099 31.7173 36.8557 31.3681 36.4965C31.3631 36.0026 31.3581 35.5038 31.3581 34.9949C31.3581 34.4861 31.3581 33.9872 31.3681 33.4933C31.7173 33.1342 32.0615 32.78 32.4257 32.4158C32.7849 32.0566 33.144 31.7074 33.5032 31.3582C33.9971 31.3532 34.496 31.3483 35.0048 31.3483C35.5136 31.3483 36.0125 31.3483 36.5064 31.3582C36.8655 31.7074 37.2247 32.0566 37.5839 32.4158C37.9481 32.78 38.2923 33.1342 38.6415 33.4933C38.6465 33.9872 38.6515 34.4861 38.6515 34.9949C38.6515 35.5038 38.6515 36.0026 38.6415 36.4965C38.2923 36.8557 37.9481 37.2099 37.5839 37.574C37.2197 37.9382 36.8655 38.2824 36.5064 38.6316H36.5014ZM39.3997 34.2666C39.6392 34.511 39.8587 34.7505 40.0882 34.9899C39.8587 35.2344 39.6392 35.4688 39.3997 35.7133C39.3997 35.4688 39.4047 35.2294 39.4047 34.9899C39.4047 34.7505 39.4047 34.506 39.3997 34.2666ZM39.3898 33.1741C39.3798 32.5804 39.3698 31.9968 39.3548 31.4131C40.6968 31.453 41.9789 31.5179 43.1961 31.5927C42.3879 32.5106 41.5249 33.4584 40.607 34.4412C40.2079 34.0172 39.8038 33.5981 39.3898 33.1741ZM38.6215 32.3959C38.4519 32.2213 38.2873 32.0516 38.1127 31.877C37.9381 31.7024 37.7685 31.5378 37.5939 31.3682C37.9331 31.3732 38.2673 31.3832 38.5966 31.3932C38.6066 31.7274 38.6115 32.0566 38.6215 32.3959ZM36.8157 30.605C36.3916 30.1909 35.9676 29.7868 35.5485 29.3877C36.5113 28.4848 37.4592 27.6218 38.397 26.7987C38.4769 28.0159 38.5367 29.2979 38.5766 30.6399C37.993 30.6249 37.4093 30.6099 36.8157 30.605ZM35.7182 30.595C35.4787 30.595 35.2393 30.59 34.9948 30.59C34.7504 30.59 34.5159 30.59 34.2715 30.595C34.5109 30.3605 34.7554 30.136 34.9948 29.9066C35.2343 30.136 35.4737 30.3605 35.7182 30.595ZM33.179 30.605C32.5853 30.6149 32.0017 30.6249 31.418 30.6399C31.4579 29.2979 31.5227 28.0159 31.5976 26.7987C32.5354 27.6268 33.4833 28.4848 34.4461 29.3877C34.022 29.7868 33.603 30.1909 33.179 30.605ZM32.4007 31.3732C32.2261 31.5428 32.0565 31.7074 31.8819 31.882C31.7073 32.0566 31.5427 32.2262 31.3731 32.4009C31.3781 32.0616 31.3881 31.7274 31.398 31.3981C31.7323 31.3882 32.0615 31.3832 32.4007 31.3732ZM30.6098 33.1791C30.1958 33.6031 29.7917 34.0221 29.3926 34.4462C28.4697 33.4634 27.6067 32.5156 26.8035 31.5977C28.0208 31.5179 29.3028 31.458 30.6448 31.4181C30.6298 32.0018 30.6148 32.5854 30.6098 33.1791ZM30.5999 34.2716C30.5999 34.516 30.5949 34.7555 30.5949 34.9949C30.5949 35.2344 30.5949 35.4788 30.5999 35.7183C30.3604 35.4738 30.1409 35.2344 29.9114 34.9949C30.1409 34.7505 30.3604 34.516 30.5999 34.2716ZM30.6098 36.8158C30.6198 37.4094 30.6298 37.9931 30.6448 38.5767C29.3028 38.5368 28.0208 38.472 26.8035 38.3971C27.6117 37.4792 28.4747 36.5314 29.3926 35.5487C29.7917 35.9727 30.1958 36.3917 30.6098 36.8158ZM31.3781 37.594C31.5477 37.7686 31.7123 37.9382 31.8869 38.1128C32.0615 38.2874 32.2311 38.452 32.4057 38.6216C32.0665 38.6166 31.7323 38.6067 31.403 38.5967C31.393 38.2625 31.3881 37.9332 31.3781 37.594ZM33.184 39.3849C33.608 39.7989 34.027 40.203 34.4511 40.6021C33.4683 41.525 32.5205 42.388 31.6026 43.1912C31.5227 41.974 31.4629 40.6919 31.423 39.35C32.0066 39.3649 32.5903 39.3799 33.184 39.3849ZM34.2765 39.3949C34.5209 39.3949 34.7603 39.3999 34.9998 39.3999C35.2393 39.3999 35.4837 39.3999 35.7231 39.3949C35.4787 39.6343 35.2393 39.8538 34.9998 40.0833C34.7554 39.8538 34.5209 39.6343 34.2765 39.3949ZM36.8206 39.3849C37.4143 39.3749 37.9979 39.3649 38.5816 39.35C38.5417 40.6919 38.4769 41.974 38.402 43.1912C37.4841 42.383 36.5363 41.52 35.5535 40.6021C35.9776 40.203 36.3966 39.7989 36.8206 39.3849ZM37.5989 38.6166C37.7735 38.447 37.9431 38.2824 38.1177 38.1078C38.2923 37.9332 38.4569 37.7636 38.6265 37.589C38.6215 37.9282 38.6115 38.2625 38.6016 38.5917C38.2673 38.6017 37.9381 38.6067 37.5989 38.6166ZM39.3898 36.8108C39.8038 36.3867 40.2079 35.9677 40.607 35.5437C41.5299 36.5264 42.3929 37.4743 43.1961 38.3922C41.9789 38.472 40.6968 38.5318 39.3548 38.5717C39.3698 37.9881 39.3848 37.4044 39.3898 36.8108ZM41.1308 34.9949C42.1884 33.8675 43.2011 32.755 44.1539 31.6625C53.0785 32.3111 58.2866 33.8276 58.2866 34.9949C58.2866 36.1623 53.0785 37.6788 44.1539 38.3273C43.2011 37.2348 42.1884 36.1223 41.1308 34.9949ZM51.7964 31.7773C49.7311 31.4281 47.3466 31.1537 44.7675 30.9542C46.4536 28.9886 47.9452 27.1079 49.1574 25.4018C51.0431 22.7379 52.0957 20.7475 52.3052 19.4405C55.7673 23.2867 57.9723 28.2853 58.2566 33.7827C57.1891 33.0045 55.034 32.331 51.8014 31.7823L51.7964 31.7773ZM44.6028 20.8473C42.8967 22.0595 41.0111 23.5511 39.0505 25.2372C38.851 22.6581 38.5766 20.2686 38.2274 18.2083C37.6787 14.9757 37.0102 12.8206 36.227 11.753C41.7244 12.0374 46.723 14.2424 50.5692 17.7044C49.2622 17.914 47.2668 18.9666 44.6078 20.8522L44.6028 20.8473ZM38.3372 25.8458C37.2447 26.7987 36.1322 27.8113 35.0048 28.8689C33.8774 27.8113 32.7649 26.7987 31.6724 25.8458C32.3209 16.9212 33.8375 11.7131 35.0048 11.7131C36.1721 11.7131 37.6887 16.9212 38.3372 25.8458ZM31.7871 18.2033C31.4379 20.2686 31.1636 22.6531 30.964 25.2322C28.9985 23.5461 27.1178 22.0545 25.4117 20.8423C22.7478 18.9516 20.7574 17.904 19.4503 17.6945C23.2966 14.2324 28.2951 12.0274 33.7926 11.7431C33.0143 12.8106 32.3409 14.9657 31.7921 18.1983L31.7871 18.2033ZM20.8571 25.3969C22.0694 27.103 23.5609 28.9837 25.2471 30.9492C22.668 31.1487 20.2784 31.4231 18.2182 31.7723C14.9855 32.321 12.8305 32.9895 11.7629 33.7727C12.0473 28.2753 14.2522 23.2767 17.7143 19.4305C17.9238 20.7375 18.9764 22.7329 20.8621 25.3919L20.8571 25.3969ZM25.8557 31.6625C26.8085 32.755 27.8212 33.8675 28.8788 34.9949C27.8212 36.1223 26.8085 37.2348 25.8557 38.3273C16.9311 37.6788 11.723 36.1623 11.723 34.9949C11.723 33.8276 16.9311 32.3111 25.8557 31.6625ZM18.2132 38.2176C20.2784 38.5668 22.663 38.8411 25.2421 39.0407C23.556 41.0062 22.0644 42.8869 20.8521 44.593C18.9664 47.2569 17.9139 49.2473 17.7043 50.5544C14.2422 46.7081 12.0373 41.7096 11.7529 36.2121C12.8205 36.9904 14.9756 37.6638 18.2082 38.2126L18.2132 38.2176ZM25.4067 49.1476C27.1128 47.9353 28.9935 46.4438 30.959 44.7576C31.1586 47.3367 31.433 49.7262 31.7822 51.7865C32.3309 55.0191 33.0044 57.1742 33.7826 58.2418C28.2851 57.9574 23.2866 55.7525 19.4404 52.2904C20.7474 52.0809 22.7428 51.0333 25.4017 49.1426L25.4067 49.1476ZM31.6724 44.144C32.7649 43.1912 33.8774 42.1785 35.0048 41.1209C36.1322 42.1785 37.2447 43.1912 38.3372 44.144C37.6887 53.0686 36.1721 58.2767 35.0048 58.2767C33.8375 58.2767 32.3209 53.0686 31.6724 44.144ZM38.2224 51.7865C38.5716 49.7213 38.846 47.3367 39.0456 44.7576C41.0111 46.4438 42.8918 47.9353 44.5979 49.1476C47.2618 51.0382 49.2522 52.0859 50.5592 52.2954C46.713 55.7575 41.7145 57.9624 36.217 58.2468C36.9952 57.1792 37.6687 55.0241 38.2174 51.7915L38.2224 51.7865ZM49.1524 44.593C47.9402 42.8869 46.4486 41.0062 44.7625 39.0407C47.3416 38.8411 49.7311 38.5668 51.7914 38.2176C55.024 37.6688 57.1791 36.9953 58.2467 36.2171C57.9623 41.7146 55.7574 46.7131 52.2953 50.5593C52.0857 49.2523 51.0381 47.2569 49.1475 44.598L49.1524 44.593Z" fill="black"/>
</svg>
