<svg width="70" height="70" viewBox="0 0 70 70" fill="none" xmlns="http://www.w3.org/2000/svg">
<path d="M35 70C54.33 70 70 54.33 70 35C70 15.67 54.33 0 35 0C15.67 0 0 15.67 0 35C0 54.33 15.67 70 35 70Z" fill="#ffffff0"/>
<path d="M59.0399 35C59.0399 28.0858 56.1016 21.8451 51.4123 17.4551V17.4102H51.3674C47.0722 13.4094 41.3204 10.96 35.0048 10.96C28.6892 10.96 22.9374 13.4144 18.6422 17.4102H18.5973V17.4551C13.908 21.8451 10.9697 28.0808 10.9697 35C10.9697 48.2447 21.7351 59.0201 34.9699 59.0401C34.9749 59.0401 34.9848 59.0401 34.9898 59.0401C34.9898 59.0401 34.9998 59.0401 35.0098 59.0401C35.0198 59.0401 35.0198 59.0401 35.0297 59.0401C35.0297 59.0401 35.0447 59.0401 35.0497 59.0401C48.2894 59.0201 59.0498 48.2447 59.0498 35H59.0399ZM34.6207 34.6209H20.5678C19.4304 26.8935 19.3456 19.8447 19.3406 18.1685H34.6207V34.6209ZM34.6207 35.3791V58.2668C32.2561 58.177 30.121 57.1893 28.2652 55.3136C24.0847 51.0783 21.8648 42.9768 20.6825 35.3791H34.6207ZM35.3789 35.3791H49.3171C48.1348 42.9768 45.9149 51.0783 41.7344 55.3136C39.8836 57.1893 37.7435 58.172 35.3789 58.2668V35.3791ZM49.4318 34.6209H35.3789V18.1685H50.659C50.659 19.8447 50.5742 26.8886 49.4318 34.6209ZM34.9998 11.7182C40.8215 11.7182 46.1443 13.8683 50.23 17.4102H19.7696C23.8553 13.8683 29.1781 11.7182 34.9998 11.7182ZM11.718 35C11.718 28.5597 14.347 22.7281 18.5823 18.5077C18.5923 20.5181 18.7021 26.4845 19.58 33.1692C21.0317 44.2139 23.7705 51.8415 27.7264 55.8474C28.5146 56.6455 29.3477 57.2891 30.2257 57.7929C19.6698 55.588 11.713 46.2044 11.713 35.005L11.718 35ZM39.7689 57.7879C40.6469 57.2891 41.485 56.6405 42.2682 55.8424C46.2241 51.8365 48.9629 44.204 50.4146 33.1642C51.2926 26.4795 51.4023 20.5131 51.4123 18.5027C55.6526 22.7231 58.2766 28.5547 58.2766 34.995C58.2766 46.1994 50.3198 55.578 39.7639 57.7829L39.7689 57.7879Z" fill="black"/>
</svg>
