<svg width="18" height="18" viewBox="0 0 18 18" fill="none" xmlns="http://www.w3.org/2000/svg">
<path d="M16.36 1H1.64C1.286 1 1 1.286 1 1.64V16.36C1 16.714 1.286 17 1.64 17H16.36C16.714 17 17 16.714 17 16.36V1.64C17 1.286 16.714 1 16.36 1ZM15.56 10.28H9.32V7.72H15.56V10.28ZM15.56 15.56H2.44V2.44H15.56V6.44H8.68C8.326 6.44 8.04 6.726 8.04 7.08V10.92C8.04 11.274 8.326 11.56 8.68 11.56H15.56V15.56ZM10.36 9C10.36 9.21217 10.4443 9.41566 10.5943 9.56569C10.7443 9.71572 10.9478 9.8 11.16 9.8C11.3722 9.8 11.5757 9.71572 11.7257 9.56569C11.8757 9.41566 11.96 9.21217 11.96 9C11.96 8.78783 11.8757 8.58434 11.7257 8.43431C11.5757 8.28429 11.3722 8.2 11.16 8.2C10.9478 8.2 10.7443 8.28429 10.5943 8.43431C10.4443 8.58434 10.36 8.78783 10.36 9Z" fill="black" stroke="#FDEFD8" stroke-width="0.6"/>
</svg>
