<svg width="20" height="14" viewBox="0 0 20 14" fill="none" xmlns="http://www.w3.org/2000/svg">
<path d="M2.49129 2.24557C2.49129 2.93348 3.04895 3.49114 3.73685 3.49114C4.42476 3.49114 4.98242 2.93348 4.98242 2.24557C4.98242 1.55766 4.42476 1 3.73685 1C3.04895 1 2.49129 1.55766 2.49129 2.24557Z" fill="black" stroke="#FDEFD8"/>
<path d="M17.3227 9.10366C18.1864 8.23998 18.6621 7.09161 18.6621 5.87013L18.6621 5.79839C18.6621 4.5769 18.1864 3.42855 17.3227 2.56485C16.459 1.70114 15.3107 1.22546 14.0892 1.22546L8.58973 1.22546C8.0263 1.22546 7.56958 1.6822 7.56958 2.24561C7.56958 2.80902 8.0263 3.26575 8.58973 3.26575L14.0892 3.26575C15.4857 3.26575 16.6218 4.40188 16.6218 5.79837L16.6218 5.87011C16.6218 7.26662 15.4857 8.40273 14.0892 8.40273L4.92958 8.40273L5.73966 7.58291C6.13569 7.18214 6.13182 6.5362 5.73101 6.14023C5.33024 5.74422 4.68434 5.7481 4.28835 6.14888L1.72959 8.73849C1.53312 8.93731 1.43509 9.19641 1.43509 9.45546C1.43509 9.71858 1.53627 9.98163 1.73826 10.1811L4.29307 12.7055C4.69384 13.1015 5.33974 13.0976 5.73573 12.6969C6.13172 12.2961 6.12785 11.6502 5.72708 11.2542L4.90611 10.443L14.0892 10.443C15.3107 10.443 16.459 9.96736 17.3227 9.10366Z" fill="black" stroke="#FDEFD8"/>
</svg>
